<?xml version="1.0" encoding="utf-8"?>
<!-- Generator: Adobe Illustrator 16.0.4, SVG Export Plug-In . SVG Version: 6.00 Build 0)  -->
<!DOCTYPE svg PUBLIC "-//W3C//DTD SVG 1.1//EN" "http://www.w3.org/Graphics/SVG/1.1/DTD/svg11.dtd">
<svg version="1.1" id="Layer_1" xmlns="http://www.w3.org/2000/svg" xmlns:xlink="http://www.w3.org/1999/xlink" x="0px" y="0px"
	 width="66.938px" height="42.627px" viewBox="0 0 66.938 42.627" enable-background="new 0 0 66.938 42.627" xml:space="preserve">
<path fill="#FFFFFF" d="M17.214,1.685c-1.129,2.372-3.478,4.977-6.861,4.977c-1.854,0-5.21-1.686-6.541-1.686
	c-1.908,0-2.77,0.641-2.77,1.887C1.042,7.326,0,7.662,0,5.939c0-3.179,2.836-5.497,6.099-5.497c2.532,0,5.907,1.805,7.624,1.805
	c1.325,0,2.283-0.381,3.21-1.043C17.337,0.916,17.406,1.283,17.214,1.685"/>
<path fill="#FFFFFF" d="M31.94,0.963c-1.764,2.167-2.888,3.652-4.613,6.06c-1.567-1.204-2.93-1.926-4.936-1.926
	c-3.893,0-5.497,2.047-5.497,6.701V18.7c1.764-2.849,3.532-4.415,6.942-4.415c1.604,0,3.129,0.643,3.852,1.164l1.203-1.725
	l0.721,0.48c-1.844,2.568-3.008,4.254-4.211,6.181c-1.285-0.884-2.969-1.405-4.975-1.405c-1.487,0-2.53,0.481-3.532,1.084v11.517
	c0.761-0.041,1.525-0.08,2.285-0.08c4.111,0,7.144,1.203,9.389,2.648l1.246-1.647l0.803,0.562c-1.284,1.487-2.969,3.773-4.857,6.703
	c-2.326-1.405-4.694-2.809-9.629-2.809c-6.862,0-10.955,2.608-10.955,5.016c0,0.922-1.043,1.003-1.043-0.643
	c0-4.4,3.371-8.627,11.596-9.671V10.435c0-7.464,4.335-10.274,9.51-10.274c2.367,0,3.813,0.883,4.856,1.606l1.003-1.324L31.94,0.963
	z"/>
<path fill="#FFFFFF" d="M14.808,7.303c-0.804,0.763-1.164,1.611-1.164,2.89v13.442c0,3.932-1.359,6.014-3.371,7.263l-3.491,2.166
	c-0.585,0.369-1.338,0.135-0.562-0.521c0.702-0.591,1.525-1.442,1.525-3.128v-8.146H6.902c-1.255,0-2.278,0.808-2.529,2.568
	c-0.063,0.448-0.404,0.517-0.722,0.04c-0.641-0.962-1.002-2.287-1.002-3.611c0-2.528,1.765-4.013,5.096-4.013v-1.525
	c0-3.37,1.764-5.306,3.411-6.139c0,0,2.443-1.252,3.331-1.686C15.023,6.64,15.229,6.901,14.808,7.303"/>
<path fill="#FFFFFF" d="M50.029,23.073l-5.739-12.64c-0.867-1.914-1.525-3.251-2.086-4.053v16.894
	c1.317-0.495,2.793-0.763,4.256-0.763C47.699,22.512,48.923,22.704,50.029,23.073 M60.021,28.169V15.53
	c-1.138,0.218-2.124,0.36-3.132,0.36c-0.883,0-1.778-0.049-2.807-0.24c1.668,3.777,3.168,7.183,3.168,7.183
	C58.431,25.505,58.98,26.743,60.021,28.169 M66.884,1.324c-0.49,2.401-1.957,5.72-5.66,6.14v28.409c0,0.991,0.252,2.723,0.683,3.372
	c0.169,0.254,0.147,0.464-0.321,0.361c-2.369-0.522-5.265-2.744-7.143-6.863l-3.73-8.185c-1.371-0.468-2.738-0.803-4.295-0.803
	c-1.259,0-2.633,0.173-4.213,0.723v7.503c2.809,0,4.787,0.771,6.221,1.766l0.883-1.403l0.601,0.399
	c-1.043,1.605-2.606,4.335-3.851,6.702c-1.284-1.043-3.814-2.127-6.381-2.127c-3.41,0-5.538,1.605-5.538,3.292
	c0,1.082-0.763,1.082-0.763-0.403c0-3.771,2.568-8.145,7.623-8.226V21.268h-0.881c-1.257,0-2.324,0.801-2.529,2.567
	c-0.037,0.322-0.354,0.706-0.723,0c-0.605-1.161-1.083-2.245-1.083-3.57c0-2.394,1.806-4.014,5.216-4.014V5.457
	c-0.359-0.239-0.886-0.36-1.443-0.36c-2.127,0-3.707,1.329-3.209,4.614c0.049,0.329-0.186,0.815-0.604,0.2
	C35.062,8.909,34.7,7.544,34.7,6.261C34.7,1.51,38.753,0,41.28,0c4.6,0,7.141,3.49,8.229,5.818l3.971,8.507
	c1.091,0.282,2.287,0.442,3.41,0.442c1.158,0,2.254-0.137,3.132-0.442v-6.82c-2.855-0.062-3.855-0.795-4.776-1.485
	c0,0-0.441,0.642-0.922,1.283l-0.723-0.481c0.723-0.842,4.494-6.581,4.494-6.581c1.322,0.964,2.662,1.525,4.213,1.525
	c2.246,0,3.35-0.394,4.134-1.043C66.787,0.436,67.06,0.453,66.884,1.324"/>
</svg>
